<svg width="590" height="397" viewBox="0 0 590 397" fill="none" xmlns="http://www.w3.org/2000/svg">
<mask id="mask0" mask-type="alpha" maskUnits="userSpaceOnUse" x="47" y="25" width="474" height="373">
<path d="M247.173 83.0094C279.295 46.9825 315.509 51.3858 336.35 54.151C362.562 54.151 394.858 90.889 414.361 136.515C433.863 182.142 508.438 178.41 504.417 268.654C498.107 410.273 299.066 414.837 168.283 376.321C37.5004 337.805 1.89266 118.89 118.952 144.219C222.203 166.559 207.02 128.043 247.173 83.0094Z" fill="#C4C4C4"/>
<path d="M439.026 144.219C404.15 90.1492 414.169 56.1142 423.538 45.8554C430.193 38.5683 443.651 34.4205 447.63 54.151C456.234 96.8143 494.092 97.4072 515.889 121.702C537.686 145.996 482.62 211.805 439.026 144.219Z" fill="#C4C4C4"/>
<path d="M168.283 121.702C135.702 136.871 90.2719 136.515 90.2719 113.406C90.2719 69.1589 115.511 75.483 153.942 68.3724C192.374 61.2618 200.405 15.6356 222.202 27.4866C243.999 39.3375 209.009 102.74 168.283 121.702Z" fill="#C4C4C4"/>
</mask>
<g mask="url(#mask0)">
<rect x="-215.878" y="-56.2432" width="1138.77" height="475.224" fill="#A6E3EB"/>
<path d="M-184.716 335.352H-215.878V418.984H226.804H923.58V287.961H897.67V256.799L871.818 230.093H854.678V260.079L840.281 274.952V211.472L824.169 194.828V153.751L809.772 138.878H776.52V236.614L756.981 256.799V194.828H731.271L702.819 301.417H672.31V256.799H658.598V274.952H642.144V287.961H632.888V310.978H597.923V207.582H571.977L549.773 230.093V318.161L532.809 342.786H479.67V274.952H442.497V230.093L420.294 207.582V170.876H397.841V183.244H379.88V199.683L355.18 224.726V282.85H314.764L277.592 270.77V177.932H232.935V192.249H197.475V305.616V359.048H177.77V342.786L144.317 331.171V289.355H109.947L96.1992 303.293H81.0765V318.161H68.7035V263.801L0.880516 237.782H-13.3256V274.952L-25.2405 287.032V207.582L-33.0309 199.683V156.938H-42.1962L-67.4007 170.876V260.548L-86.1894 270.77L-93.0634 192.249H-131.099L-144.389 282.85H-149.888V274.952H-171.885V282.85H-184.716V335.352Z" fill="url(#paint0_linear)"/>
<rect opacity="0.5" x="-215.878" y="-56.2432" width="1138.77" height="475.224" fill="white"/>
<mask id="mask1" mask-type="alpha" maskUnits="userSpaceOnUse" x="-216" y="-57" width="1139" height="476">
<rect opacity="0.5" x="-215.877" y="-56.2432" width="1138.77" height="475.224" fill="white"/>
</mask>
<g mask="url(#mask1)">
<rect opacity="0.5" width="1588.68" height="74.9564" transform="matrix(0.858849 -0.512229 0.487869 0.872917 -548.388 504.687)" fill="white"/>
<rect opacity="0.5" width="1588.68" height="22.8111" transform="matrix(0.858849 -0.512229 0.487869 0.872917 -348.277 532.491)" fill="white"/>
</g>
</g>
<path d="M178.527 289.897H147.168V330.377H103.705V289.897H0V259.881L90.7763 137.613H137.54L53.3654 253.547H105.08V217.473H147.168V253.547H178.527V289.897Z" fill="#18C9DB"/>
<path d="M573.386 289.897H542.027V330.377H498.564V289.897H394.859V259.881L485.635 137.613H532.399L448.224 253.547H499.939V217.473H542.027V253.547H573.386V289.897Z" fill="#18C9DB"/>
<rect width="54.3328" height="11.2291" transform="matrix(-0.0141313 0.9999 -0.9999 -0.0141619 208.601 263.457)" fill="#8EC985"/>
<rect width="54.278" height="11.2405" transform="matrix(0.965856 0.25908 -0.258558 0.965996 363.815 250.808)" fill="#8EC985"/>
<rect width="54.3181" height="11.2322" transform="matrix(0.499595 -0.866259 0.865791 0.500406 423.294 270.384)" fill="#8EC985"/>
<path d="M353.089 231.752L344.369 231.752L344.369 272.989L353.089 272.989C364.477 272.989 373.708 263.758 373.708 252.371C373.708 240.983 364.477 231.752 353.089 231.752Z" fill="#16B9CA" stroke="url(#paint1_linear)" stroke-width="0.605391"/>
<path d="M346.851 273.292C358.405 273.292 367.772 263.925 367.772 252.371V252.371C367.772 240.816 358.405 231.449 346.851 231.449L337.827 231.449L337.827 273.292L346.851 273.292Z" fill="#3D565F"/>
<path d="M207.78 231.752L216.5 231.752L216.5 272.989L207.78 272.989C196.392 272.989 187.161 263.758 187.161 252.371C187.161 240.983 196.392 231.752 207.78 231.752Z" fill="#16B9CA" stroke="url(#paint2_linear)" stroke-width="0.605391"/>
<path d="M214.018 273.292C202.463 273.292 193.097 263.925 193.097 252.371V252.371C193.097 240.816 202.463 231.449 214.018 231.449L223.041 231.449L223.041 273.292L214.018 273.292Z" fill="#3D565F"/>
<path d="M202.844 246.125C198.529 232.7 208.526 218.957 222.608 218.957L338.261 218.957C352.342 218.957 362.339 232.7 358.024 246.126L329.809 333.904C323.355 353.981 317.181 367.592 296.123 367.592L264.745 367.592C243.687 367.592 237.513 353.981 231.059 333.904L202.844 246.125Z" fill="#49B26A"/>
<mask id="mask2" mask-type="alpha" maskUnits="userSpaceOnUse" x="201" y="218" width="159" height="150">
<path d="M202.844 246.125C198.529 232.7 208.526 218.957 222.608 218.957L338.261 218.957C352.342 218.957 362.339 232.7 358.024 246.126L329.809 333.904C323.355 353.981 317.181 367.592 296.123 367.592L264.745 367.592C243.687 367.592 237.513 353.981 231.059 333.904L202.844 246.125Z" fill="#B9D796"/>
</mask>
<g mask="url(#mask2)">
<path opacity="0.5" d="M202.845 234.261C198.529 220.836 208.526 207.093 222.608 207.093L338.261 207.093C352.342 207.093 362.339 220.836 358.024 234.261L329.809 322.04C323.355 342.116 317.181 355.727 296.123 355.727L264.745 355.727C243.688 355.727 237.513 342.116 231.06 322.04L202.845 234.261Z" fill="url(#paint3_linear)"/>
<path d="M202.845 221.147C198.529 207.721 208.526 193.979 222.608 193.979L338.261 193.979C352.342 193.979 362.339 207.721 358.024 221.147L329.809 308.925C323.355 329.002 317.181 342.613 296.123 342.613L264.745 342.613C243.688 342.613 237.513 329.002 231.06 308.925L202.845 221.147Z" fill="url(#paint4_linear)"/>
<path d="M209.623 131.215C205.667 117.79 214.831 104.047 227.739 104.047L333.754 104.047C346.662 104.047 355.826 117.79 351.87 131.215L326.007 218.994C320.091 239.07 314.431 252.681 295.128 252.681L266.365 252.681C247.062 252.681 241.402 239.07 235.486 218.994L209.623 131.215Z" fill="url(#paint5_linear)"/>
<path d="M360.625 243C360.625 270.405 348.223 295.255 331.938 313.268C315.621 331.317 295.572 342.327 280.434 342.327C265.296 342.327 245.247 331.317 228.93 313.268C212.645 295.255 200.243 270.405 200.243 243C200.243 215.596 212.645 190.745 228.93 172.733C245.247 154.684 265.296 143.674 280.434 143.674C295.572 143.674 315.621 154.684 331.938 172.733C348.223 190.745 360.625 215.596 360.625 243Z" stroke="#3D565F" stroke-width="1.81617"/>
<path d="M315.085 391.012C315.085 410.301 311.126 427.719 304.768 440.282C298.384 452.895 289.73 460.362 280.434 460.362C271.138 460.362 262.485 452.895 256.101 440.282C249.743 427.719 245.784 410.301 245.784 391.012C245.784 371.723 249.743 354.304 256.101 341.742C262.485 329.128 271.139 321.662 280.434 321.662C289.73 321.662 298.384 329.128 304.768 341.742C311.126 354.304 315.085 371.723 315.085 391.012Z" stroke="#3D565F" stroke-width="1.81617"/>
<path d="M330.993 343.434L310.663 277.215C310.682 257.98 314.637 240.614 320.98 228.081C327.364 215.467 336.018 208.001 345.314 208.001C354.61 208.001 363.264 215.467 369.648 228.081C375.973 240.579 379.924 257.882 379.965 277.052L330.993 343.434Z" stroke="#3D565F" stroke-width="1.81617"/>
<path d="M246.22 243.065L233.266 217.993L327.603 217.993L314.648 243.065C311.686 248.798 305.773 252.399 299.32 252.399L261.549 252.399C255.096 252.399 249.183 248.798 246.22 243.065Z" stroke="#3D565F" stroke-width="1.81617"/>
<path d="M229.876 343.433L250.205 277.215C250.187 257.98 246.231 240.614 239.888 228.081C233.504 215.467 224.85 208.001 215.555 208.001C206.259 208.001 197.605 215.467 191.221 228.081C184.896 240.578 180.945 257.882 180.904 277.052L229.876 343.433Z" stroke="#3D565F" stroke-width="1.81617"/>
</g>
<path d="M291.639 273.495C292.483 275.174 292.97 277.071 292.97 279.108C292.97 286.132 287.311 291.691 280.39 291.691C273.469 291.691 267.659 286.132 267.659 279.108C267.659 272.083 273.418 266.626 280.39 266.626C282.562 266.626 284.608 267.164 286.395 268.118L290.964 264.285C287.968 262.371 284.323 261.269 280.339 261.269C269.781 261.269 261.596 268.95 261.596 279.107C261.596 289.214 269.78 297.047 280.339 297.047C290.898 297.047 299.083 289.214 299.083 279.107C299.083 275.56 298.072 272.308 296.307 269.578L291.639 273.495Z" fill="#3D565F"/>
<path d="M286.437 279.158C286.437 282.527 283.707 285.258 280.339 285.258C276.971 285.258 274.24 282.527 274.24 279.158C274.24 275.789 276.971 273.057 280.339 273.057C283.707 273.057 286.437 275.789 286.437 279.158Z" fill="#16B9CA" stroke="#EEFDFF" stroke-width="0.282835"/>
<path d="M280.405 283.558C282.82 283.558 284.778 281.599 284.778 279.184C284.778 276.768 282.82 274.81 280.405 274.81C277.99 274.81 276.032 276.768 276.032 279.184C276.032 281.599 277.99 283.558 280.405 283.558Z" fill="#EEFDFF"/>
<ellipse cx="422.982" cy="272.976" rx="12.1649" ry="12.178" fill="#3D565F"/>
<mask id="mask3" mask-type="alpha" maskUnits="userSpaceOnUse" x="410" y="260" width="26" height="26">
<ellipse cx="422.982" cy="272.976" rx="12.1649" ry="12.178" fill="#49B26A"/>
</mask>
<g mask="url(#mask3)">
<ellipse opacity="0.5" cx="422.358" cy="269.235" rx="12.1649" ry="12.178" fill="#7A8B91"/>
</g>
<rect width="38.8756" height="5.60735" transform="matrix(0.706985 -0.70756 0.706653 0.707229 357.149 124.797)" fill="#8EC985"/>
<ellipse rx="7.17468" ry="7.1814" transform="matrix(0.965856 -0.25908 0.258558 0.965996 385.79 100.302)" fill="#3D565F"/>
<mask id="mask4" mask-type="alpha" maskUnits="userSpaceOnUse" x="378" y="93" width="15" height="15">
<ellipse rx="7.17468" ry="7.1814" transform="matrix(0.965856 -0.25908 0.258558 0.965996 385.791 100.301)" fill="#49B26A"/>
</mask>
<g mask="url(#mask4)">
<ellipse opacity="0.5" rx="7.17468" ry="7.1814" transform="matrix(0.965856 -0.25908 0.258558 0.965996 384.864 98.2639)" fill="#7A8B91"/>
</g>
<rect width="38.8756" height="5.60735" transform="matrix(-0.706984 -0.70756 -0.706654 0.707229 204.969 124.798)" fill="#8EC985"/>
<ellipse rx="7.17468" ry="7.1814" transform="matrix(-0.965856 -0.25908 -0.258558 0.965996 176.326 100.302)" fill="#3D565F"/>
<mask id="mask5" mask-type="alpha" maskUnits="userSpaceOnUse" x="169" y="93" width="15" height="15">
<ellipse rx="7.17468" ry="7.1814" transform="matrix(-0.965856 -0.25908 -0.258558 0.965996 176.326 100.302)" fill="#49B26A"/>
</mask>
<g mask="url(#mask5)">
<ellipse opacity="0.5" rx="7.17468" ry="7.1814" transform="matrix(-0.965856 -0.25908 -0.258558 0.965996 177.253 98.2639)" fill="#7A8B91"/>
</g>
<path d="M364.139 118.721L363.85 118.22C359.087 109.962 348.715 106.967 340.327 111.269L358.391 142.59C366.306 137.469 368.901 126.979 364.139 118.721Z" fill="#16B9CA" stroke="url(#paint6_linear)" stroke-width="1.81617"/>
<path d="M352.455 146.972C361.407 141.799 364.476 130.344 359.311 121.388L359.022 120.887C353.857 111.931 342.413 108.865 333.461 114.038V114.038L352.455 146.972V146.972Z" fill="#3D565F"/>
<path d="M196.997 118.721L197.286 118.22C202.048 109.962 212.421 106.967 220.809 111.269L202.745 142.59C194.829 137.469 192.235 126.979 196.997 118.721Z" fill="#16B9CA" stroke="url(#paint7_linear)" stroke-width="1.81617"/>
<path d="M208.057 146.972C199.105 141.799 196.036 130.344 201.201 121.388L201.49 120.887C206.656 111.931 218.099 108.865 227.051 114.038V114.038L208.057 146.972V146.972Z" fill="#3D565F"/>
<path d="M213.852 113.014C224.012 90.8075 246.171 76.5684 270.57 76.5684L290.298 76.5684C314.696 76.5684 336.855 90.8075 347.015 113.014L363.039 148.036C365.947 154.392 365.078 161.84 360.786 167.354L337.834 196.841C333.105 202.916 325.843 206.468 318.15 206.468L242.717 206.468C235.024 206.468 227.762 202.916 223.033 196.841L200.081 167.354C195.789 161.84 194.92 154.392 197.828 148.036L213.852 113.014Z" fill="#B9D796"/>
<path d="M213.852 113.014C224.012 90.8075 246.171 76.5684 270.57 76.5684L290.298 76.5684C314.696 76.5684 336.855 90.8075 347.015 113.014L363.039 148.036C365.947 154.392 365.078 161.84 360.786 167.354L337.834 196.841C333.105 202.916 325.843 206.468 318.15 206.468L242.717 206.468C235.024 206.468 227.762 202.916 223.033 196.841L200.081 167.354C195.789 161.84 194.92 154.392 197.828 148.036L213.852 113.014Z" fill="#49B26A"/>
<mask id="mask6" mask-type="alpha" maskUnits="userSpaceOnUse" x="196" y="76" width="169" height="131">
<path d="M213.852 113.014C224.012 90.8075 246.171 76.5684 270.57 76.5684L290.298 76.5684C314.696 76.5684 336.855 90.8075 347.015 113.014L363.039 148.036C365.947 154.392 365.078 161.84 360.786 167.354L337.834 196.841C333.105 202.916 325.843 206.468 318.15 206.468L242.717 206.468C235.024 206.468 227.762 202.916 223.033 196.841L200.081 167.354C195.789 161.84 194.92 154.392 197.828 148.036L213.852 113.014Z" fill="#B9D796"/>
</mask>
<g mask="url(#mask6)">
<path d="M214.562 104.271C224.722 82.0643 246.882 67.8252 271.28 67.8252L291.008 67.8252C315.407 67.8252 337.566 82.0643 347.726 104.271L363.749 139.293C366.657 145.649 365.789 153.097 361.497 158.611L338.544 188.098C333.816 194.173 326.553 197.724 318.861 197.724L243.427 197.724C235.735 197.724 228.472 194.173 223.744 188.098L200.792 158.611C196.5 153.097 195.631 145.649 198.539 139.293L214.562 104.271Z" fill="url(#paint8_linear)"/>
<path d="M436.109 107.168C436.109 113.286 432.015 119.292 424.183 124.905C416.372 130.502 405.011 135.581 390.891 139.861C362.662 148.417 323.609 153.723 280.433 153.723C237.257 153.723 198.204 148.417 169.975 139.861C155.854 135.581 144.494 130.502 136.683 124.905C128.851 119.292 124.757 113.286 124.757 107.168C124.757 101.051 128.851 95.0448 136.683 89.4315C144.494 83.8341 155.855 78.7558 169.975 74.4758C198.204 65.919 237.257 60.6132 280.433 60.6132C323.609 60.6132 362.662 65.9191 390.891 74.4758C405.011 78.7559 416.372 83.8342 424.183 89.4316C432.015 95.0448 436.109 101.051 436.109 107.168Z" stroke="#3D565F" stroke-width="1.81617"/>
<path d="M436.109 99.6771C436.109 105.794 432.015 111.801 424.183 117.414C416.372 123.011 405.011 128.089 390.891 132.37C362.662 140.926 323.609 146.232 280.433 146.232C237.257 146.232 198.204 140.926 169.975 132.369C155.854 128.089 144.494 123.011 136.683 117.414C128.851 111.8 124.757 105.794 124.757 99.677C124.757 93.5597 128.851 87.5536 136.683 81.9403C144.494 76.3429 155.855 71.2646 169.975 66.9845C198.204 58.4278 237.257 53.122 280.433 53.122C323.609 53.122 362.662 58.4278 390.891 66.9846C405.011 71.2647 416.372 76.3429 424.183 81.9404C432.015 87.5536 436.109 93.5597 436.109 99.6771Z" stroke="#3D565F" stroke-width="1.81617"/>
<path d="M320.699 63.4524C320.699 89.2827 302.421 110.007 280.122 110.007C257.823 110.007 239.545 89.2827 239.545 63.4524C239.545 37.6221 257.823 16.8973 280.122 16.8974C302.421 16.8974 320.699 37.6221 320.699 63.4524Z" stroke="#3D565F" stroke-width="1.81617"/>
<path d="M320.699 85.3128C320.699 111.143 302.421 131.868 280.122 131.868C257.823 131.868 239.545 111.143 239.545 85.3127C239.545 59.4824 257.823 38.7577 280.122 38.7577C302.421 38.7577 320.699 59.4824 320.699 85.3128Z" stroke="#3D565F" stroke-width="1.81617"/>
</g>
<path d="M221.546 134.041C225.962 126.726 233.005 121.364 241.244 119.047V119.047C248.341 117.05 255.899 117.434 262.756 120.139L265.199 121.102C274.987 124.963 285.882 124.963 295.671 121.102L298.113 120.139C304.971 117.434 312.529 117.05 319.626 119.047V119.047C327.864 121.364 334.908 126.726 339.323 134.041L340.364 135.765C343.909 141.639 344.962 148.679 343.29 155.329L341.419 162.77V162.77C338.987 172.437 328.891 178.061 319.365 175.055L298.756 168.551C286.833 164.789 274.036 164.789 262.113 168.551L241.505 175.055C231.978 178.061 221.882 172.437 219.451 162.77V162.77L217.58 155.329C215.907 148.679 216.96 141.639 220.505 135.765L221.546 134.041Z" fill="url(#paint9_linear)"/>
<path d="M226.003 135.177C230.084 128.392 236.595 123.418 244.21 121.268V121.268C250.77 119.416 257.756 119.772 264.094 122.281L266.351 123.174C275.399 126.756 285.469 126.756 294.517 123.174L296.775 122.281C303.113 119.772 310.099 119.416 316.659 121.268V121.268C324.274 123.418 330.785 128.392 334.866 135.177L335.828 136.777C339.105 142.225 340.078 148.756 338.532 154.925L336.802 161.827V161.827C334.555 170.795 325.223 176.012 316.418 173.223L297.369 167.19C286.348 163.7 274.52 163.7 263.5 167.19L244.451 173.223C235.646 176.012 226.314 170.795 224.067 161.827V161.827L222.337 154.925C220.791 148.756 221.764 142.225 225.041 136.777L226.003 135.177Z" fill="#3D565F"/>
<mask id="mask7" mask-type="alpha" maskUnits="userSpaceOnUse" x="221" y="120" width="119" height="54">
<path d="M226.003 135.177C230.084 128.392 236.595 123.418 244.21 121.268V121.268C250.77 119.416 257.756 119.772 264.094 122.281L266.351 123.174C275.399 126.756 285.469 126.756 294.517 123.174L296.775 122.281C303.113 119.772 310.099 119.416 316.659 121.268V121.268C324.274 123.418 330.785 128.392 334.866 135.177L335.828 136.777C339.105 142.225 340.078 148.756 338.532 154.925L336.802 161.827V161.827C334.555 170.795 325.223 176.012 316.418 173.223L297.369 167.19C286.348 163.7 274.52 163.7 263.5 167.19L244.451 173.223C235.646 176.012 226.314 170.795 224.067 161.827V161.827L222.337 154.925C220.791 148.756 221.764 142.225 225.041 136.777L226.003 135.177Z" fill="#3D565F"/>
</mask>
<g mask="url(#mask7)">
<rect width="177.006" height="14.3985" transform="matrix(0.865869 -0.500272 0.499728 0.866182 190.601 178.883)" fill="url(#paint10_linear)"/>
<rect width="177.006" height="7.73157" transform="matrix(0.865791 -0.500405 0.499594 0.866259 219.375 196.166)" fill="url(#paint11_linear)"/>
</g>
<path d="M263.288 146.827C263.288 154.076 257.418 159.952 250.178 159.952C242.938 159.952 237.068 154.076 237.068 146.827C237.068 139.579 242.938 133.703 250.178 133.703C257.418 133.703 263.288 139.579 263.288 146.827Z" fill="#18C9DB" stroke="url(#paint12_linear)" stroke-width="0.605391"/>
<ellipse cx="249.805" cy="146.828" rx="9.31428" ry="8.95138" fill="#EEFDFF"/>
<path d="M323.177 146.827C323.177 154.076 317.307 159.952 310.067 159.952C302.827 159.952 296.957 154.076 296.957 146.827C296.957 139.579 302.827 133.703 310.067 133.703C317.307 133.703 323.177 139.579 323.177 146.827Z" fill="#18C9DB" stroke="url(#paint13_linear)" stroke-width="0.605391"/>
<ellipse cx="309.694" cy="146.828" rx="9.31428" ry="8.95138" fill="#EEFDFF"/>
<rect x="264.498" y="174.9" width="31.2474" height="10.6741" rx="5.33706" fill="#EEFDFF" stroke="url(#paint14_linear)" stroke-width="1.81617"/>
<ellipse cx="294.162" cy="183.984" rx="13.4126" ry="5.62063" fill="#3D565F"/>
<path d="M301.961 184.609L308.127 184.609C337.076 184.609 360.35 160.779 359.666 131.838V131.838" stroke="#3D565F" stroke-width="4.23774"/>
<mask id="mask8" mask-type="alpha" maskUnits="userSpaceOnUse" x="280" y="178" width="28" height="12">
<ellipse cx="294.162" cy="183.986" rx="13.4126" ry="5.62063" fill="#3D565F"/>
</mask>
<g mask="url(#mask8)">
<ellipse opacity="0.5" cx="291.043" cy="183.361" rx="12.1649" ry="4.99612" fill="#7A8B91"/>
</g>
<ellipse rx="9.79922" ry="4.01818" transform="matrix(0.321942 0.946948 -0.946397 0.322452 446.002 209.042)" fill="#3D565F"/>
<mask id="mask9" mask-type="alpha" maskUnits="userSpaceOnUse" x="441" y="199" width="10" height="20">
<ellipse rx="9.79922" ry="4.01818" transform="matrix(0.321942 0.946948 -0.946397 0.322452 446.002 209.042)" fill="#49B26A"/>
</mask>
<g mask="url(#mask9)">
<ellipse opacity="0.5" rx="9.79922" ry="4.01818" transform="matrix(0.321942 0.946948 -0.946397 0.322452 447.01 208.169)" fill="#7A8B91"/>
</g>
<ellipse rx="9.80167" ry="4.01718" transform="matrix(-0.194104 0.980981 -0.980901 -0.194508 457.286 202.594)" fill="#3D565F"/>
<mask id="mask10" mask-type="alpha" maskUnits="userSpaceOnUse" x="452" y="192" width="10" height="21">
<ellipse rx="9.80167" ry="4.01718" transform="matrix(-0.194104 0.980981 -0.980901 -0.194508 457.287 202.594)" fill="#49B26A"/>
</mask>
<g mask="url(#mask10)">
<ellipse opacity="0.5" rx="9.80167" ry="4.01718" transform="matrix(-0.194104 0.980981 -0.980901 -0.194508 458.597 202.343)" fill="#7A8B91"/>
</g>
<ellipse rx="9.80101" ry="4.01745" transform="matrix(-0.441141 0.897323 -0.897129 -0.442001 467.967 202.359)" fill="#3D565F"/>
<mask id="mask11" mask-type="alpha" maskUnits="userSpaceOnUse" x="462" y="193" width="12" height="19">
<ellipse rx="9.80101" ry="4.01745" transform="matrix(-0.441141 0.897323 -0.897129 -0.442001 467.967 202.359)" fill="#49B26A"/>
</mask>
<g mask="url(#mask11)">
<ellipse opacity="0.5" rx="9.80101" ry="4.01745" transform="matrix(-0.441141 0.897323 -0.897129 -0.442001 469.297 202.453)" fill="#7A8B91"/>
</g>
<ellipse rx="9.79677" ry="4.01919" transform="matrix(-0.830575 0.556536 -0.555934 -0.831474 472.516 212.997)" fill="#3D565F"/>
<mask id="mask12" mask-type="alpha" maskUnits="userSpaceOnUse" x="464" y="206" width="17" height="14">
<ellipse rx="9.79677" ry="4.01919" transform="matrix(-0.830575 0.556536 -0.555934 -0.831474 472.516 212.997)" fill="#49B26A"/>
</mask>
<g mask="url(#mask12)">
<ellipse opacity="0.5" rx="9.79677" ry="4.01919" transform="matrix(-0.830575 0.556536 -0.555934 -0.831474 473.62 213.747)" fill="#7A8B91"/>
</g>
<path d="M449.3 213.564C451.962 208.149 458.509 205.922 463.922 208.589V208.589C469.336 211.257 471.567 217.809 468.905 223.224L465.831 229.477C464.862 231.448 462.479 232.258 460.509 231.287L448.039 225.144C446.069 224.173 445.257 221.788 446.226 219.818L449.3 213.564Z" fill="#3D565F"/>
<mask id="mask13" mask-type="alpha" maskUnits="userSpaceOnUse" x="445" y="207" width="26" height="25">
<path d="M449.296 213.566C451.959 208.151 458.507 205.923 463.921 208.59V208.59C469.335 211.256 471.566 217.807 468.903 223.221L465.827 229.474C464.858 231.445 462.475 232.255 460.505 231.285L448.034 225.144C446.063 224.173 445.251 221.789 446.221 219.818L449.296 213.566Z" fill="#3D565F"/>
</mask>
<g mask="url(#mask13)">
<path d="M453.144 217.899C455.422 213.266 461.023 211.36 465.655 213.642V213.642C470.287 215.924 472.196 221.53 469.918 226.163L467.288 231.513C466.459 233.199 464.42 233.893 462.734 233.062L452.065 227.806C450.379 226.975 449.685 224.935 450.514 223.249L453.144 217.899Z" fill="#5B7077"/>
</g>
<rect width="54.2851" height="11.239" transform="matrix(-0.90145 -0.432884 0.432124 -0.901814 247.876 358.286)" fill="#8EC985"/>
<ellipse rx="9.7943" ry="4.0202" transform="matrix(-0.943104 0.331986 -0.331461 -0.943649 263.192 342.866)" fill="#3D565F"/>
<mask id="mask14" mask-type="alpha" maskUnits="userSpaceOnUse" x="253" y="337" width="20" height="11">
<ellipse rx="9.7943" ry="4.0202" transform="matrix(-0.943104 0.331986 -0.331461 -0.943649 263.192 342.866)" fill="#49B26A"/>
</mask>
<g mask="url(#mask14)">
<ellipse opacity="0.5" rx="9.7943" ry="4.0202" transform="matrix(-0.943104 0.331986 -0.331461 -0.943649 264.075 343.865)" fill="#7A8B91"/>
</g>
<ellipse rx="9.79183" ry="4.02121" transform="matrix(-0.982814 -0.1846 0.184215 -0.982886 269.743 354.097)" fill="#3D565F"/>
<mask id="mask15" mask-type="alpha" maskUnits="userSpaceOnUse" x="260" y="349" width="20" height="10">
<ellipse rx="9.79183" ry="4.02121" transform="matrix(-0.982814 -0.1846 0.184215 -0.982886 269.743 354.097)" fill="#49B26A"/>
</mask>
<g mask="url(#mask15)">
<ellipse opacity="0.5" rx="9.79183" ry="4.02121" transform="matrix(-0.982814 -0.1846 0.184215 -0.982886 270.01 355.404)" fill="#7A8B91"/>
</g>
<ellipse rx="9.79249" ry="4.02094" transform="matrix(-0.901574 -0.432852 0.432157 -0.90169 270.086 364.786)" fill="#3D565F"/>
<mask id="mask16" mask-type="alpha" maskUnits="userSpaceOnUse" x="261" y="359" width="19" height="12">
<ellipse rx="9.79249" ry="4.02094" transform="matrix(-0.901574 -0.432852 0.432157 -0.90169 270.086 364.786)" fill="#49B26A"/>
</mask>
<g mask="url(#mask16)">
<ellipse opacity="0.5" rx="9.79249" ry="4.02094" transform="matrix(-0.901574 -0.432852 0.432157 -0.90169 270.005 366.12)" fill="#7A8B91"/>
</g>
<ellipse rx="9.79677" ry="4.01919" transform="matrix(-0.564279 -0.825822 0.824929 -0.564889 259.508 369.448)" fill="#3D565F"/>
<mask id="mask17" mask-type="alpha" maskUnits="userSpaceOnUse" x="253" y="361" width="13" height="17">
<ellipse rx="9.79677" ry="4.01919" transform="matrix(-0.564279 -0.825822 0.824929 -0.564889 259.508 369.448)" fill="#49B26A"/>
</mask>
<g mask="url(#mask17)">
<ellipse opacity="0.5" rx="9.79677" ry="4.01919" transform="matrix(-0.564279 -0.825822 0.824929 -0.564889 258.771 370.56)" fill="#7A8B91"/>
</g>
<path d="M258.688 346.204C264.133 348.819 266.432 355.354 263.822 360.8V360.8C261.213 366.246 254.683 368.541 249.238 365.927L242.978 362.92C240.999 361.97 240.164 359.596 241.113 357.618L247.13 345.061C248.078 343.082 250.45 342.248 252.428 343.198L258.688 346.204Z" fill="#3D565F"/>
<mask id="mask18" mask-type="alpha" maskUnits="userSpaceOnUse" x="240" y="342" width="25" height="26">
<path d="M258.687 346.205C264.132 348.819 266.431 355.353 263.821 360.799V360.799C261.21 366.245 254.68 368.541 249.235 365.927L242.975 362.921C240.996 361.971 240.161 359.597 241.109 357.619L247.127 345.062C248.076 343.083 250.448 342.249 252.427 343.199L258.687 346.205Z" fill="#3D565F"/>
</mask>
<g mask="url(#mask18)">
<path d="M254.4 350.099C259.059 352.336 261.026 357.927 258.793 362.587V362.587C256.56 367.247 250.973 369.21 246.314 366.973L240.958 364.401C239.266 363.588 238.551 361.557 239.362 359.864L244.51 349.12C245.322 347.427 247.351 346.714 249.044 347.527L254.4 350.099Z" fill="#5B7077"/>
</g>
<ellipse rx="12.1773" ry="12.1657" transform="matrix(0.24488 0.969554 -0.969428 0.245378 201.634 326.314)" fill="#3D565F"/>
<mask id="mask19" mask-type="alpha" maskUnits="userSpaceOnUse" x="189" y="314" width="25" height="25">
<ellipse rx="12.1773" ry="12.1657" transform="matrix(0.24488 0.969554 -0.969428 0.245378 201.634 326.314)" fill="#49B26A"/>
</mask>
<g mask="url(#mask19)">
<ellipse opacity="0.5" rx="12.1773" ry="12.1657" transform="matrix(0.24488 0.969554 -0.969428 0.245378 205.109 324.791)" fill="#7A8B91"/>
</g>
<ellipse rx="25.3993" ry="25.4172" transform="matrix(-0.706724 -0.707489 0.706724 -0.707489 384.258 35.9522)" fill="#D9EDD3"/>
<path d="M386.399 25.764C385.454 24.8182 385.383 23.9431 386.187 23.1386C387.022 22.3025 387.912 22.3574 388.857 23.3032L396.84 31.2954C397.801 32.2569 397.863 33.1558 397.028 33.9918C396.225 34.7963 395.343 34.7178 394.382 33.7562L391.926 31.2971L381.147 42.087L384.809 42.9609C385.156 43.0554 385.416 43.1893 385.589 43.3627C385.92 43.6938 386.061 44.1195 386.014 44.6399C385.951 45.1445 385.746 45.5704 385.399 45.9174C384.942 46.3749 384.383 46.5249 383.721 46.3674L377.791 44.9739C377.035 44.785 376.444 44.4777 376.019 44.0521C375.578 43.6107 375.358 43.1219 375.358 42.5858C375.358 42.0496 375.595 41.5449 376.068 41.0717L388.879 28.2468L386.399 25.764Z" fill="#49B26A"/>
<ellipse rx="18.4671" ry="18.49" transform="matrix(0.865868 -0.500272 0.499728 0.866182 42.4574 162.112)" fill="#B9D796"/>
<path d="M49.5493 165.443C50.3909 164.957 51.0183 165.072 51.4316 165.789C51.8611 166.533 51.655 167.149 50.8135 167.635L42.8188 172.256C42.4541 172.467 42.1058 172.528 41.7739 172.439C41.4338 172.335 41.1706 172.122 40.9843 171.799C40.7412 171.377 40.6837 170.905 40.8118 170.381L42.6306 162.445C42.8469 161.458 42.9343 160.621 42.8929 159.933C42.8574 159.223 42.6856 158.601 42.3777 158.067C41.9968 157.406 41.5158 157.01 40.9345 156.878C40.3532 156.745 39.7119 156.882 39.0106 157.287C38.4356 157.619 37.9394 158.056 37.522 158.597C37.1106 159.116 36.7408 159.723 36.4126 160.419C36.329 160.598 36.2374 160.763 36.1377 160.915C36.0298 161.052 35.9058 161.161 35.7655 161.242C35.5271 161.38 35.2518 161.389 34.9399 161.27C34.6419 161.142 34.4038 160.924 34.2255 160.615C34.1039 160.404 34.0337 160.201 34.0147 160.006C34.0097 159.803 34.0508 159.582 34.1381 159.345C34.4716 158.496 34.9711 157.692 35.6365 156.933C36.2939 156.16 37.0363 155.534 37.8638 155.055C39.3085 154.22 40.6693 153.921 41.9462 154.157C43.2372 154.385 44.2393 155.118 44.9524 156.354C45.4467 157.211 45.7303 158.124 45.8032 159.094C45.868 160.049 45.733 161.242 45.3983 162.672L43.9951 168.654L49.5493 165.443Z" fill="#49B26A"/>
<ellipse rx="16.5994" ry="16.629" transform="matrix(-1 0 0 1 573.401 180.261)" fill="#B9D796"/>
<path d="M570.493 179.799C569.576 180.032 568.877 180.477 568.396 181.134C567.901 181.775 567.653 182.578 567.653 183.541C567.653 184.868 568.141 185.926 569.117 186.713C570.092 187.501 571.41 187.895 573.07 187.895C574.017 187.895 574.927 187.749 575.801 187.457C576.674 187.166 577.417 186.757 578.029 186.232C578.363 185.94 578.531 185.597 578.531 185.204C578.531 184.883 578.444 184.613 578.269 184.394C578.079 184.161 577.861 184.044 577.614 184.044C577.468 184.044 577.337 184.073 577.22 184.131C577.104 184.175 576.944 184.255 576.74 184.372C576.128 184.781 575.546 185.094 574.992 185.313C574.439 185.532 573.835 185.641 573.18 185.641C572.218 185.641 571.505 185.452 571.039 185.072C570.573 184.678 570.34 184.088 570.34 183.3C570.34 182.527 570.588 181.958 571.083 181.593C571.563 181.214 572.313 181.024 573.332 181.024H574.577C574.912 181.024 575.174 180.915 575.364 180.696C575.538 180.463 575.626 180.2 575.626 179.908C575.626 179.602 575.538 179.339 575.364 179.121C575.174 178.902 574.912 178.792 574.577 178.792H573.704C571.709 178.792 570.711 178.041 570.711 176.539C570.711 175.838 570.922 175.299 571.345 174.919C571.767 174.54 572.35 174.35 573.092 174.35C574.155 174.35 575.291 174.773 576.5 175.62C576.703 175.736 576.864 175.824 576.98 175.882C577.097 175.926 577.228 175.948 577.373 175.948C577.621 175.948 577.839 175.838 578.029 175.62C578.203 175.386 578.291 175.109 578.291 174.788C578.291 174.569 578.254 174.387 578.181 174.241C578.094 174.081 577.963 173.92 577.788 173.76C577.177 173.249 576.449 172.848 575.604 172.556C574.745 172.25 573.871 172.097 572.983 172.097C571.469 172.097 570.267 172.469 569.379 173.213C568.476 173.957 568.025 174.949 568.025 176.188C568.039 177.035 568.265 177.779 568.702 178.42C569.124 179.048 569.721 179.507 570.493 179.799Z" fill="#49B26A"/>
<ellipse cx="138.345" cy="136.025" rx="25.3856" ry="25.4309" fill="#D9EDD3"/>
<path d="M145.221 140.294C145.889 140.294 146.39 140.439 146.724 140.729C147.058 141.019 147.225 141.432 147.225 141.967C147.225 143.083 146.557 143.64 145.221 143.64H143.517V146.284C143.517 146.975 143.317 147.511 142.916 147.89C142.537 148.269 142.036 148.459 141.413 148.459C140.789 148.459 140.277 148.269 139.876 147.89C139.497 147.511 139.308 146.975 139.308 146.284V143.64H130.556C129.955 143.64 129.487 143.473 129.153 143.138C128.819 142.781 128.652 142.346 128.652 141.833C128.652 141.298 128.83 140.785 129.187 140.294L139.509 125.436C139.731 125.124 140.01 124.89 140.344 124.734C140.678 124.555 141.023 124.466 141.379 124.466C141.958 124.466 142.459 124.655 142.882 125.035C143.305 125.414 143.517 125.949 143.517 126.641V140.294H145.221ZM139.308 140.294V131.292L133.095 140.294H139.308Z" fill="#49B26A"/>
<ellipse rx="25.3925" ry="25.424" transform="matrix(0.865791 0.500406 -0.499595 0.866259 475.225 67.9745)" fill="#D9EDD3"/>
<path d="M477.143 65.5498C478.416 66.2855 479.373 67.2121 480.014 68.3298C480.685 69.4392 481.007 70.6426 480.979 71.94C480.95 73.2375 480.569 74.5237 479.833 75.7989C479.064 77.1319 478.076 78.1321 476.868 78.7994C475.68 79.4778 474.359 79.7836 472.907 79.7167C471.484 79.6416 470.05 79.1861 468.603 78.3501C467.408 77.659 466.343 76.7858 465.408 75.7306C464.505 74.6673 463.843 73.5634 463.423 72.419C463.202 71.7763 463.242 71.1941 463.543 70.6724C463.788 70.2474 464.11 69.9568 464.508 69.8008C464.937 69.6366 465.316 69.6492 465.644 69.8387C465.836 69.9502 465.997 70.0947 466.126 70.2723C466.267 70.4306 466.408 70.6539 466.55 70.9422C467.009 71.929 467.522 72.7791 468.088 73.4925C468.653 74.2059 469.351 74.8022 470.18 75.2815C471.453 76.0172 472.611 76.2613 473.654 76.0139C474.696 75.7665 475.557 75.0535 476.237 73.875C476.895 72.7351 477.065 71.6361 476.75 70.5779C476.465 69.5116 475.725 68.6329 474.529 67.9418C473.777 67.5071 473.041 67.2232 472.32 67.0902C471.619 66.9683 470.815 66.9802 469.908 67.1258C469.397 67.1652 468.948 67.0734 468.563 66.8505C468.177 66.6275 467.916 66.3221 467.78 65.9342C467.643 65.5463 467.687 65.1592 467.91 64.7728L473.124 55.731C473.436 55.1901 473.836 54.8542 474.322 54.7234C474.809 54.5926 475.332 54.6889 475.892 55.0121L485.525 60.5798C486.682 61.2486 486.982 62.066 486.425 63.032C485.868 63.998 485.011 64.1466 483.853 63.4778L476.101 58.9969L472.925 64.5031C474.31 64.3761 475.716 64.725 477.143 65.5498Z" fill="#49B26A"/>
<ellipse cx="486.221" cy="183.058" rx="25.3856" ry="25.4309" fill="#D9EDD3"/>
<path d="M487.439 179.342C488.842 179.342 490.089 179.665 491.181 180.312C492.272 180.937 493.118 181.829 493.719 182.989C494.343 184.127 494.655 185.432 494.655 186.904C494.655 188.421 494.309 189.782 493.619 190.987C492.951 192.169 492.016 193.095 490.813 193.764C489.633 194.434 488.286 194.768 486.771 194.768C483.787 194.768 481.482 193.764 479.857 191.756C478.253 189.726 477.452 186.837 477.452 183.089C477.452 180.524 477.83 178.304 478.587 176.43C479.345 174.534 480.425 173.084 481.828 172.08C483.253 171.076 484.923 170.574 486.838 170.574C488.107 170.574 489.377 170.808 490.646 171.277C491.938 171.723 493.029 172.337 493.92 173.117C494.209 173.363 494.41 173.608 494.521 173.854C494.655 174.077 494.721 174.356 494.721 174.69C494.721 175.181 494.577 175.605 494.287 175.962C494.02 176.296 493.697 176.464 493.318 176.464C493.096 176.464 492.884 176.43 492.684 176.363C492.483 176.274 492.238 176.14 491.949 175.962C490.1 174.668 488.453 174.021 487.005 174.021C485.379 174.021 484.099 174.779 483.164 176.296C482.228 177.791 481.738 179.899 481.694 182.621C482.206 181.617 482.974 180.825 483.999 180.245C485.023 179.643 486.17 179.342 487.439 179.342ZM486.537 191.355C487.762 191.355 488.742 190.964 489.477 190.184C490.212 189.381 490.579 188.332 490.579 187.038C490.579 185.744 490.212 184.707 489.477 183.926C488.742 183.145 487.762 182.755 486.537 182.755C485.29 182.755 484.277 183.156 483.498 183.96C482.741 184.74 482.362 185.767 482.362 187.038C482.362 188.332 482.741 189.381 483.498 190.184C484.277 190.964 485.29 191.355 486.537 191.355Z" fill="#49B26A"/>
<ellipse rx="25.3993" ry="25.4172" transform="matrix(-0.706724 0.707489 -0.706724 -0.707489 69.9936 265.268)" fill="#B9D796"/>
<path d="M67.2691 268.994C66.0249 269.703 64.7884 269.963 63.5597 269.773C62.3152 269.6 61.1809 269 60.1566 267.975C58.6911 266.508 58.092 264.804 58.3591 262.865C58.6419 260.941 59.7597 259.002 61.7122 257.047C63.6648 255.092 65.6019 253.973 67.5236 253.69C69.461 253.423 71.1625 254.023 72.6279 255.49C73.6522 256.515 74.2512 257.651 74.4249 258.897C74.6143 260.158 74.347 261.404 73.6228 262.634C74.7725 262.114 75.9145 261.948 77.0487 262.138C78.1987 262.343 79.2228 262.896 80.121 263.795C81.5077 265.183 82.0832 266.8 81.8475 268.644C81.6119 270.489 80.5887 272.318 78.7778 274.131C76.9669 275.944 75.14 276.968 73.2971 277.204C71.4542 277.44 69.8394 276.864 68.4527 275.476C67.5388 274.561 66.9792 273.528 66.7741 272.376C66.5689 271.225 66.7339 270.098 67.2691 268.994ZM76.3905 271.741C78.3588 269.771 78.5394 267.981 76.9321 266.372C76.1284 265.567 75.2698 265.197 74.3562 265.259C73.4426 265.354 72.4977 265.889 71.5214 266.867C70.5451 267.844 70.0177 268.782 69.9393 269.681C69.8609 270.611 70.2235 271.479 71.0271 272.283C72.6344 273.892 74.4222 273.712 76.3905 271.741ZM64.0995 259.437C61.8478 261.691 61.5649 263.662 63.251 265.35C64.9371 267.038 66.906 266.755 69.1577 264.501C71.4095 262.246 71.6924 260.275 70.0063 258.587C68.3202 256.9 66.3513 257.183 64.0995 259.437Z" fill="#49B26A"/>
<ellipse cx="178.038" cy="28.7166" rx="14.3082" ry="14.3338" fill="#B9D796"/>
<path d="M177.576 21.6797C179.258 21.6797 180.551 22.2518 181.454 23.396C182.371 24.5277 182.829 26.1498 182.829 28.2622C182.829 29.7082 182.615 30.9656 182.189 32.0344C181.762 33.0906 181.147 33.9017 180.343 34.4675C179.553 35.0333 178.618 35.3163 177.538 35.3163C176.823 35.3163 176.101 35.1905 175.373 34.939C174.658 34.675 174.049 34.3229 173.547 33.8828C173.384 33.7445 173.264 33.6125 173.189 33.4867C173.126 33.3484 173.095 33.185 173.095 32.9963C173.095 32.7197 173.17 32.4871 173.321 32.2985C173.484 32.0973 173.672 31.9967 173.886 31.9967C174.011 31.9967 174.13 32.0219 174.243 32.0722C174.356 32.1099 174.494 32.179 174.658 32.2796C175.699 33.0089 176.628 33.3736 177.444 33.3736C178.36 33.3736 179.082 32.9523 179.609 32.1099C180.136 31.2548 180.413 30.0603 180.438 28.5263C180.149 29.0921 179.716 29.5448 179.139 29.8843C178.561 30.2112 177.915 30.3747 177.199 30.3747C176.409 30.3747 175.706 30.1986 175.091 29.8465C174.476 29.4819 173.992 28.9789 173.641 28.3377C173.302 27.6838 173.133 26.9419 173.133 26.112C173.133 25.257 173.321 24.4963 173.697 23.8299C174.086 23.1509 174.614 22.6227 175.279 22.2455C175.957 21.8683 176.722 21.6797 177.576 21.6797ZM177.708 28.4508C178.411 28.4508 178.975 28.2308 179.402 27.7907C179.841 27.338 180.061 26.7533 180.061 26.0366C180.061 25.3073 179.841 24.7226 179.402 24.2825C178.975 23.8299 178.411 23.6035 177.708 23.6035C177.017 23.6035 176.465 23.8299 176.051 24.2825C175.637 24.7226 175.43 25.3073 175.43 26.0366C175.43 26.7659 175.637 27.3506 176.051 27.7907C176.465 28.2308 177.017 28.4508 177.708 28.4508Z" fill="#49B26A"/>
<defs>
<linearGradient id="paint0_linear" x1="353.851" y1="138.878" x2="353.851" y2="418.984" gradientUnits="userSpaceOnUse">
<stop stop-color="#18C9DB"/>
<stop offset="1" stop-color="#A6E3EB"/>
</linearGradient>
<linearGradient id="paint1_linear" x1="354.244" y1="277.541" x2="376.383" y2="254.82" gradientUnits="userSpaceOnUse">
<stop stop-color="#18C9DB"/>
<stop offset="1" stop-color="#A6E3EB"/>
</linearGradient>
<linearGradient id="paint2_linear" x1="206.625" y1="277.541" x2="184.486" y2="254.82" gradientUnits="userSpaceOnUse">
<stop stop-color="#18C9DB"/>
<stop offset="1" stop-color="#A6E3EB"/>
</linearGradient>
<linearGradient id="paint3_linear" x1="185.867" y1="305.211" x2="293.65" y2="225.715" gradientUnits="userSpaceOnUse">
<stop stop-color="#49B26A"/>
<stop offset="1" stop-color="#B9D796"/>
</linearGradient>
<linearGradient id="paint4_linear" x1="185.867" y1="292.097" x2="293.65" y2="212.601" gradientUnits="userSpaceOnUse">
<stop stop-color="#49B26A"/>
<stop offset="1" stop-color="#B9D796"/>
</linearGradient>
<linearGradient id="paint5_linear" x1="194.06" y1="202.165" x2="298.752" y2="131.383" gradientUnits="userSpaceOnUse">
<stop stop-color="#49B26A"/>
<stop offset="1" stop-color="#B9D796"/>
</linearGradient>
<linearGradient id="paint6_linear" x1="365.507" y1="144.011" x2="375.242" y2="122.926" gradientUnits="userSpaceOnUse">
<stop stop-color="#18C9DB"/>
<stop offset="1" stop-color="#A6E3EB"/>
</linearGradient>
<linearGradient id="paint7_linear" x1="195.629" y1="144.011" x2="185.894" y2="122.926" gradientUnits="userSpaceOnUse">
<stop stop-color="#18C9DB"/>
<stop offset="1" stop-color="#A6E3EB"/>
</linearGradient>
<linearGradient id="paint8_linear" x1="179.718" y1="153.576" x2="277.825" y2="64.7741" gradientUnits="userSpaceOnUse">
<stop stop-color="#49B26A"/>
<stop offset="1" stop-color="#B9D796"/>
</linearGradient>
<linearGradient id="paint9_linear" x1="203.881" y1="156.126" x2="244.279" y2="94.3989" gradientUnits="userSpaceOnUse">
<stop stop-color="#18C9DB"/>
<stop offset="1" stop-color="#A6E3EB"/>
</linearGradient>
<linearGradient id="paint10_linear" x1="177.006" y1="-5.04713e-06" x2="30.2205" y2="3.59573" gradientUnits="userSpaceOnUse">
<stop stop-color="white"/>
<stop offset="1" stop-color="white" stop-opacity="0"/>
</linearGradient>
<linearGradient id="paint11_linear" x1="177.006" y1="-2.71016e-06" x2="30.4374" y2="6.68644" gradientUnits="userSpaceOnUse">
<stop stop-color="white"/>
<stop offset="1" stop-color="white" stop-opacity="0"/>
</linearGradient>
<linearGradient id="paint12_linear" x1="234.042" y1="151.128" x2="253.161" y2="137.81" gradientUnits="userSpaceOnUse">
<stop stop-color="#18C9DB"/>
<stop offset="1" stop-color="#A6E3EB"/>
</linearGradient>
<linearGradient id="paint13_linear" x1="293.931" y1="151.128" x2="313.05" y2="137.81" gradientUnits="userSpaceOnUse">
<stop stop-color="#18C9DB"/>
<stop offset="1" stop-color="#A6E3EB"/>
</linearGradient>
<linearGradient id="paint14_linear" x1="260.232" y1="182.237" x2="268.173" y2="167.579" gradientUnits="userSpaceOnUse">
<stop stop-color="#18C9DB"/>
<stop offset="1" stop-color="#A6E3EB"/>
</linearGradient>
</defs>
</svg>
